<?xml version="1.0"?>
<svg xmlns="http://www.w3.org/2000/svg" xmlns:xlink="http://www.w3.org/1999/xlink" xmlns:svgjs="http://svgjs.com/svgjs" version="1.1" width="512" height="512" x="0" y="0" viewBox="0 0 24 24" style="enable-background:new 0 0 512 512" xml:space="preserve" class=""><g><path xmlns="http://www.w3.org/2000/svg" d="m17.5 24c-3.584 0-6.5-2.916-6.5-6.5s2.916-6.5 6.5-6.5 6.5 2.916 6.5 6.5-2.916 6.5-6.5 6.5zm0-11.5c-2.757 0-5 2.243-5 5s2.243 5 5 5 5-2.243 5-5-2.243-5-5-5z" fill="#5fa8a1" data-original="#000000" style="" class=""/><path xmlns="http://www.w3.org/2000/svg" d="m17.5 21c-.414 0-.75-.336-.75-.75v-5.5c0-.414.336-.75.75-.75s.75.336.75.75v5.5c0 .414-.336.75-.75.75z" fill="#5fa8a1" data-original="#000000" style="" class=""/><path xmlns="http://www.w3.org/2000/svg" d="m20.25 18.25h-5.5c-.414 0-.75-.336-.75-.75s.336-.75.75-.75h5.5c.414 0 .75.336.75.75s-.336.75-.75.75z" fill="#5fa8a1" data-original="#000000" style="" class=""/><path xmlns="http://www.w3.org/2000/svg" d="m9.19 21h-6.44c-1.517 0-2.75-1.233-2.75-2.75v-15.5c0-1.517 1.233-2.75 2.75-2.75h11.5c1.517 0 2.75 1.233 2.75 2.75v6.09c0 .414-.336.75-.75.75s-.75-.336-.75-.75v-6.09c0-.689-.561-1.25-1.25-1.25h-11.5c-.689 0-1.25.561-1.25 1.25v15.5c0 .689.561 1.25 1.25 1.25h6.44c.414 0 .75.336.75.75s-.336.75-.75.75z" fill="#5fa8a1" data-original="#000000" style="" class=""/><path xmlns="http://www.w3.org/2000/svg" d="m13.25 9.5h-9.5c-.414 0-.75-.336-.75-.75s.336-.75.75-.75h9.5c.414 0 .75.336.75.75s-.336.75-.75.75z" fill="#5fa8a1" data-original="#000000" style="" class=""/><path xmlns="http://www.w3.org/2000/svg" d="m9.25 13.5h-5.5c-.414 0-.75-.336-.75-.75s.336-.75.75-.75h5.5c.414 0 .75.336.75.75s-.336.75-.75.75z" fill="#5fa8a1" data-original="#000000" style="" class=""/><path xmlns="http://www.w3.org/2000/svg" d="m8.25 5.5h-4.5c-.414 0-.75-.336-.75-.75s.336-.75.75-.75h4.5c.414 0 .75.336.75.75s-.336.75-.75.75z" fill="#5fa8a1" data-original="#000000" style="" class=""/></g></svg>
